<mxfile host="app.diagrams.net" modified="2023-06-15T16:24:32.661Z" agent="Mozilla/5.0 (Windows NT 10.0; Win64; x64; rv:109.0) Gecko/20100101 Firefox/114.0" etag="z0VYLyb-QASjCH0Ev7NK" version="21.4.0" type="github">
  <diagram name="第 1 页" id="4HzxTc27tcdqqLL0G1sr">
    <mxGraphModel dx="2074" dy="1114" grid="1" gridSize="10" guides="1" tooltips="1" connect="1" arrows="1" fold="1" page="1" pageScale="1" pageWidth="827" pageHeight="1169" math="0" shadow="0">
      <root>
        <mxCell id="0" />
        <mxCell id="1" parent="0" />
        <mxCell id="l2y1T9zdy1VoHN_1nCpT-6" value="Activity" style="swimlane;fontStyle=0;childLayout=stackLayout;horizontal=1;startSize=26;fillColor=none;horizontalStack=0;resizeParent=1;resizeParentMax=0;resizeLast=0;collapsible=1;marginBottom=0;whiteSpace=wrap;html=1;sketch=1;hachureGap=4;jiggle=2;curveFitting=1;fontFamily=Architects Daughter;fontSource=https%3A%2F%2Ffonts.googleapis.com%2Fcss%3Ffamily%3DArchitects%2BDaughter;fontSize=20;" vertex="1" parent="1">
          <mxGeometry x="20" y="190" width="140" height="250" as="geometry" />
        </mxCell>
        <mxCell id="l2y1T9zdy1VoHN_1nCpT-9" value="&lt;div&gt;主键id&lt;br&gt;&lt;/div&gt;&lt;div&gt;活动id&lt;/div&gt;&lt;div&gt;活动名称&lt;/div&gt;&lt;div&gt;活动描述&lt;/div&gt;&lt;div&gt;开始/结束时间&lt;/div&gt;&lt;div&gt;活动库存&lt;/div&gt;&lt;div&gt;参与次数&lt;/div&gt;&lt;div&gt;状态&lt;/div&gt;&lt;div&gt;活动策略id&lt;br&gt;&lt;/div&gt;" style="text;strokeColor=none;fillColor=none;align=left;verticalAlign=top;spacingLeft=4;spacingRight=4;overflow=hidden;rotatable=0;points=[[0,0.5],[1,0.5]];portConstraint=eastwest;whiteSpace=wrap;html=1;fontSize=20;fontFamily=Architects Daughter;" vertex="1" parent="l2y1T9zdy1VoHN_1nCpT-6">
          <mxGeometry y="26" width="140" height="224" as="geometry" />
        </mxCell>
        <mxCell id="l2y1T9zdy1VoHN_1nCpT-27" value="Strategy" style="swimlane;fontStyle=0;childLayout=stackLayout;horizontal=1;startSize=26;fillColor=none;horizontalStack=0;resizeParent=1;resizeParentMax=0;resizeLast=0;collapsible=1;marginBottom=0;whiteSpace=wrap;html=1;sketch=1;hachureGap=4;jiggle=2;curveFitting=1;fontFamily=Architects Daughter;fontSource=https%3A%2F%2Ffonts.googleapis.com%2Fcss%3Ffamily%3DArchitects%2BDaughter;fontSize=20;" vertex="1" parent="1">
          <mxGeometry x="289" y="190" width="290" height="230" as="geometry" />
        </mxCell>
        <mxCell id="l2y1T9zdy1VoHN_1nCpT-28" value="&lt;div&gt;主键id&lt;br&gt;&lt;/div&gt;&lt;div&gt;策略id&lt;br&gt;&lt;/div&gt;&lt;div&gt;策略描述&lt;/div&gt;&lt;div&gt;计算方式（单项/总体概率）&lt;/div&gt;&lt;div&gt;发奖方式（即时、定时、人工）&lt;br&gt;&lt;/div&gt;&lt;div&gt;发奖时间&lt;/div&gt;&lt;div&gt;发奖文案&lt;/div&gt;&lt;div&gt;扩展信息&lt;/div&gt;" style="text;strokeColor=none;fillColor=none;align=left;verticalAlign=top;spacingLeft=4;spacingRight=4;overflow=hidden;rotatable=0;points=[[0,0.5],[1,0.5]];portConstraint=eastwest;whiteSpace=wrap;html=1;fontSize=20;fontFamily=Architects Daughter;" vertex="1" parent="l2y1T9zdy1VoHN_1nCpT-27">
          <mxGeometry y="26" width="290" height="204" as="geometry" />
        </mxCell>
        <mxCell id="l2y1T9zdy1VoHN_1nCpT-29" value="StrategyDetial" style="swimlane;fontStyle=0;childLayout=stackLayout;horizontal=1;startSize=26;fillColor=none;horizontalStack=0;resizeParent=1;resizeParentMax=0;resizeLast=0;collapsible=1;marginBottom=0;whiteSpace=wrap;html=1;sketch=1;hachureGap=4;jiggle=2;curveFitting=1;fontFamily=Architects Daughter;fontSource=https%3A%2F%2Ffonts.googleapis.com%2Fcss%3Ffamily%3DArchitects%2BDaughter;fontSize=20;" vertex="1" parent="1">
          <mxGeometry x="710" y="190" width="190" height="180" as="geometry" />
        </mxCell>
        <mxCell id="l2y1T9zdy1VoHN_1nCpT-30" value="&lt;div&gt;主键id&lt;br&gt;&lt;/div&gt;&lt;div&gt;策略id&lt;br&gt;&lt;/div&gt;&lt;div&gt;奖品编号&lt;/div&gt;&lt;div&gt;奖品库存（本活动中要用到的库存）&lt;/div&gt;&lt;div&gt;中奖概率&lt;br&gt;&lt;/div&gt;" style="text;strokeColor=none;fillColor=none;align=left;verticalAlign=top;spacingLeft=4;spacingRight=4;overflow=hidden;rotatable=0;points=[[0,0.5],[1,0.5]];portConstraint=eastwest;whiteSpace=wrap;html=1;fontSize=20;fontFamily=Architects Daughter;" vertex="1" parent="l2y1T9zdy1VoHN_1nCpT-29">
          <mxGeometry y="26" width="190" height="154" as="geometry" />
        </mxCell>
        <mxCell id="l2y1T9zdy1VoHN_1nCpT-31" value="Award" style="swimlane;fontStyle=0;childLayout=stackLayout;horizontal=1;startSize=26;fillColor=none;horizontalStack=0;resizeParent=1;resizeParentMax=0;resizeLast=0;collapsible=1;marginBottom=0;whiteSpace=wrap;html=1;sketch=1;hachureGap=4;jiggle=2;curveFitting=1;fontFamily=Architects Daughter;fontSource=https%3A%2F%2Ffonts.googleapis.com%2Fcss%3Ffamily%3DArchitects%2BDaughter;fontSize=20;" vertex="1" parent="1">
          <mxGeometry x="1040" y="190" width="190" height="180" as="geometry" />
        </mxCell>
        <mxCell id="l2y1T9zdy1VoHN_1nCpT-32" value="&lt;div&gt;主键id&lt;br&gt;&lt;/div&gt;&lt;div&gt;奖品编号&lt;/div&gt;&lt;div&gt;奖品类型&lt;/div&gt;&lt;div&gt;奖品库存&lt;/div&gt;&lt;div&gt;奖品名称&lt;/div&gt;&lt;div&gt;奖品内容&lt;br&gt;&lt;/div&gt;" style="text;strokeColor=none;fillColor=none;align=left;verticalAlign=top;spacingLeft=4;spacingRight=4;overflow=hidden;rotatable=0;points=[[0,0.5],[1,0.5]];portConstraint=eastwest;whiteSpace=wrap;html=1;fontSize=20;fontFamily=Architects Daughter;" vertex="1" parent="l2y1T9zdy1VoHN_1nCpT-31">
          <mxGeometry y="26" width="190" height="154" as="geometry" />
        </mxCell>
        <mxCell id="l2y1T9zdy1VoHN_1nCpT-33" style="edgeStyle=orthogonalEdgeStyle;rounded=0;sketch=1;hachureGap=4;jiggle=2;curveFitting=1;orthogonalLoop=1;jettySize=auto;html=1;exitX=1;exitY=0.5;exitDx=0;exitDy=0;entryX=-0.007;entryY=0.07;entryDx=0;entryDy=0;entryPerimeter=0;fontFamily=Architects Daughter;fontSource=https%3A%2F%2Ffonts.googleapis.com%2Fcss%3Ffamily%3DArchitects%2BDaughter;fontSize=16;" edge="1" parent="1" source="l2y1T9zdy1VoHN_1nCpT-9" target="l2y1T9zdy1VoHN_1nCpT-27">
          <mxGeometry relative="1" as="geometry" />
        </mxCell>
        <mxCell id="l2y1T9zdy1VoHN_1nCpT-35" style="edgeStyle=orthogonalEdgeStyle;rounded=0;sketch=1;hachureGap=4;jiggle=2;curveFitting=1;orthogonalLoop=1;jettySize=auto;html=1;exitX=1;exitY=0.5;exitDx=0;exitDy=0;entryX=-0.016;entryY=0.072;entryDx=0;entryDy=0;entryPerimeter=0;fontFamily=Architects Daughter;fontSource=https%3A%2F%2Ffonts.googleapis.com%2Fcss%3Ffamily%3DArchitects%2BDaughter;fontSize=16;" edge="1" parent="1" source="l2y1T9zdy1VoHN_1nCpT-28" target="l2y1T9zdy1VoHN_1nCpT-29">
          <mxGeometry relative="1" as="geometry" />
        </mxCell>
        <mxCell id="l2y1T9zdy1VoHN_1nCpT-36" style="edgeStyle=orthogonalEdgeStyle;rounded=0;sketch=1;hachureGap=4;jiggle=2;curveFitting=1;orthogonalLoop=1;jettySize=auto;html=1;entryX=0;entryY=0.067;entryDx=0;entryDy=0;entryPerimeter=0;fontFamily=Architects Daughter;fontSource=https%3A%2F%2Ffonts.googleapis.com%2Fcss%3Ffamily%3DArchitects%2BDaughter;fontSize=16;exitX=1.005;exitY=0.067;exitDx=0;exitDy=0;exitPerimeter=0;startArrow=classic;startFill=1;" edge="1" parent="1" source="l2y1T9zdy1VoHN_1nCpT-29" target="l2y1T9zdy1VoHN_1nCpT-31">
          <mxGeometry relative="1" as="geometry">
            <mxPoint x="880" y="202" as="sourcePoint" />
          </mxGeometry>
        </mxCell>
        <mxCell id="l2y1T9zdy1VoHN_1nCpT-38" value="&lt;font style=&quot;font-size: 14px;&quot;&gt;一个活动对应一个抽奖策略&lt;/font&gt;" style="text;html=1;strokeColor=none;fillColor=none;align=center;verticalAlign=middle;whiteSpace=wrap;rounded=0;fontSize=20;fontFamily=Architects Daughter;" vertex="1" parent="1">
          <mxGeometry x="180" y="330" width="91" height="60" as="geometry" />
        </mxCell>
        <mxCell id="l2y1T9zdy1VoHN_1nCpT-39" value="&lt;font style=&quot;font-size: 14px;&quot;&gt;一个抽奖策略包含多条策略明细&lt;/font&gt;" style="text;html=1;strokeColor=none;fillColor=none;align=center;verticalAlign=middle;whiteSpace=wrap;rounded=0;fontSize=20;fontFamily=Architects Daughter;" vertex="1" parent="1">
          <mxGeometry x="600" y="325" width="80" height="70" as="geometry" />
        </mxCell>
        <mxCell id="l2y1T9zdy1VoHN_1nCpT-40" value="&lt;font style=&quot;font-size: 14px;&quot;&gt;一条策略明细对应一个奖品信息，一个奖品数量足够多就可以给多个策略明细使用&lt;/font&gt;" style="text;html=1;strokeColor=none;fillColor=none;align=center;verticalAlign=middle;whiteSpace=wrap;rounded=0;fontSize=20;fontFamily=Architects Daughter;" vertex="1" parent="1">
          <mxGeometry x="910" y="210" width="120" height="130" as="geometry" />
        </mxCell>
      </root>
    </mxGraphModel>
  </diagram>
</mxfile>
